<svg width="52" height="52" viewBox="0 0 52 52" fill="none" xmlns="http://www.w3.org/2000/svg">
  <path fill-rule="evenodd" clip-rule="evenodd" d="M26 0.166626C11.74 0.166626 0.166687 11.74 0.166687 26C0.166687 40.26 11.74 51.8333 26 51.8333C40.26 51.8333 51.8334 40.26 51.8334 26C51.8334 11.74 40.26 0.166626 26 0.166626ZM26 7.91663C30.2884 7.91663 33.75 11.3783 33.75 15.6666C33.75 19.955 30.2884 23.4166 26 23.4166C21.7117 23.4166 18.25 19.955 18.25 15.6666C18.25 11.3783 21.7117 7.91663 26 7.91663ZM10.5 36.2816C13.8325 41.2933 19.5417 44.5999 26 44.5999C32.4584 44.5999 38.1675 41.2933 41.5 36.2816C41.4225 31.1408 31.1409 28.3249 26 28.3249C20.8334 28.3249 10.5775 31.1408 10.5 36.2816Z" fill="#015e7d"/>
</svg>