<svg width="21" height="21" viewBox="0 0 21 21" fill="none" xmlns="http://www.w3.org/2000/svg">
  <path d="M10.4651 19.25H2.61626C2.13486 19.25 1.74419 18.858 1.74419 18.3751V2.62503C1.74419 2.14202 2.1349 1.75004 2.61626 1.75004H10.4651C10.9474 1.75004 11.3372 1.35893 11.3372 0.875063C11.3372 0.391194 10.9474 0 10.4651 0H2.61626C1.17383 0 0 1.17778 0 2.62503V18.375C0 19.8223 1.17383 21 2.61626 21H10.4651C10.9474 21 11.3372 20.6089 11.3372 20.125C11.3372 19.6411 10.9474 19.25 10.4651 19.25Z" fill="#0070D8"/>
  <path d="M20.7401 9.87704L15.4378 4.62703C15.0959 4.28752 14.543 4.29193 14.2047 4.63579C13.8663 4.97966 13.8698 5.53353 14.2134 5.87304L18.0026 9.62502H7.84885C7.36659 9.62502 6.97678 10.0161 6.97678 10.5C6.97678 10.9839 7.36659 11.375 7.84885 11.375H18.0026L14.2134 15.127C13.8698 15.4665 13.8672 16.0204 14.2047 16.3643C14.3756 16.5375 14.6006 16.625 14.8256 16.625C15.0471 16.625 15.2686 16.541 15.4378 16.373L20.7401 11.123C20.9058 10.9585 21 10.7344 21 10.5C21 10.2656 20.9067 10.0424 20.7401 9.87704Z" fill="#0070D8"/>
</svg>